#!OML:ASF I:\golf\golf\golf 2\Subject 1\2002-09-07\Subject1.ASF
:FULLY-SPECIFIED
:DEGREES
382
root -7.03699 18.1509 -3.63951 -169.18 10.9512 -174.347
lowerback -6.73321 10.1536 11.9711
upperback -8.1716 15.1754 4.59234
thorax -3.49865 7.89258 -0.911043
lowerneck -16.1872 -14.3777 -0.463907
upperneck 18.8854 -21.3297 2.97197
head 8.93285 -10.0377 -1.64279
rclavicle -1.63003e-013 1.43125e-014
rhumerus 76.7855 32.5135 -64.9292
rradius 60.6113
rwrist -13.2482
rhand -42.9953 31.2219
rfingers 7.12502
rthumb -15.8538 1.85093
lclavicle -1.63003e-013 1.43125e-014
lhumerus 53.2923 -0.894843 55.0336
lradius 59.4053
lwrist 15.1134
lhand -21.0159 16.636
lfingers 7.12502
lthumb -174.641 -493.452
rfemur 10.4789 -3.20498 16.3031
rtibia 23.8081
rfoot 31.7765 -25.0686
rtoes 17.6292
lfemur -23.509 -19.0839 -12.1004
ltibia 20.6768
lfoot 35.7034 -47.046
ltoes 40.5047
383
root -7.03305 18.151 -3.6247 -169.184 11.2362 -174.319
lowerback -6.53392 10.1118 11.8737
upperback -8.10747 15.1191 4.61572
thorax -3.56443 7.85511 -0.8818
lowerneck -16.0859 -14.2709 -0.499822
upperneck 18.8008 -21.1928 3.0919
head 8.90304 -9.96999 -1.57233
rclavicle -6.36111e-015 3.97569e-014
rhumerus 76.1588 32.6862 -65.2075
rradius 60.1836
rwrist -13.6277
rhand -42.6857 31.402
rfingers 7.12502
rthumb -15.5557 2.00763
lclavicle -6.36111e-015 3.97569e-014
lhumerus 52.9171 -1.31122 55.2311
lradius 59.0093
lwrist 15.6009
lhand -21.0482 16.7677
lfingers 7.12502
lthumb -174.672 -493.319
rfemur 10.3823 -3.1833 16.2124
rtibia 23.9137
rfoot 31.9032 -24.6192
rtoes 17.6407
lfemur -23.4644 -19.0959 -12.0226
ltibia 20.6448
lfoot 34.5706 -47.6296
ltoes 39.7054
384
root -7.02777 18.1518 -3.61129 -169.208 11.4342 -174.217
lowerback -6.31878 10.0914 11.8766
upperback -8.04758 15.0942 4.63009
thorax -3.61811 7.83002 -0.908839
lowerneck -16.037 -14.1881 -0.604401
upperneck 18.7015 -21.0778 3.26292
head 8.89097 -9.90796 -1.48479
rclavicle 2.38542e-014 3.65764e-014
rhumerus 75.4665 32.7533 -65.5046
rradius 59.7687
rwrist -13.8652
rhand -42.589 31.0872
rfingers 7.12502
rthumb -15.4625 1.68565
lclavicle 2.38542e-014 3.65764e-014
lhumerus 52.6152 -1.62674 55.9271
lradius 59.0036
lwrist 17.1079
lhand -19.3509 17.3845
lfingers 7.12502
lthumb -173.034 -492.75
rfemur 10.3309 -3.21646 16.2406
rtibia 24.0499
rfoot 31.8648 -24.3157
rtoes 17.5301
lfemur -23.3937 -19.2022 -11.8586
ltibia 20.6263
lfoot 33.6016 -47.9506
ltoes 39.2542
385
root -7.02248 18.1553 -3.60022 -169.181 11.6039 -174.164
lowerback -6.2713 10.0625 11.8143
upperback -7.95736 15.0288 4.65529
thorax -3.5677 7.79572 -0.857778
lowerneck -16.0371 -14.112 -0.681996
upperneck 18.641 -20.9529 3.33293
head 8.88477 -9.84577 -1.4348
rclavicle -1.19271e-014 2.70347e-014
rhumerus 74.8764 32.8561 -65.6706
rradius 59.4568
rwrist -14.118
rhand -42.6617 30.3355
rfingers 7.12502
rthumb -15.5325 0.939294
lclavicle -1.19271e-014 2.70347e-014
lhumerus 52.2878 -2.02641 56.4752
lradius 58.7678
lwrist 17.5424
lhand -18.7048 17.8708
lfingers 7.12502
lthumb -172.41 -492.285
rfemur 10.2282 -3.38297 16.1839
rtibia 24.1735
rfoot 31.7407 -24.0459
rtoes 17.2461
lfemur -23.4046 -19.3126 -11.7388
ltibia 20.6125
lfoot 32.7638 -48.0622
ltoes 38.6468
386
root -7.01836 18.157 -3.5888 -169.094 11.7592 -174.109
lowerback -6.2513 9.98876 11.7426
upperback -7.88663 14.9092 4.69539
thorax -3.5349 7.7368 -0.790305
lowerneck -16.1208 -14.0014 -0.655637
upperneck 18.63 -20.7757 3.27924
head 8.88292 -9.7607 -1.43645
rclavicle -7.55382e-015 9.22361e-014
rhumerus 74.3673 33.0567 -65.7434
rradius 59.2354
rwrist -14.5469
rhand -42.6874 29.5744
rfingers 7.12502
rthumb -15.5573 0.180143
lclavicle -7.55382e-015 9.22361e-014
lhumerus 51.9478 -2.37657 56.7884
lradius 58.2504
lwrist 17.5032
lhand -18.6981 17.9643
lfingers 7.12502
lthumb -172.403 -492.192
rfemur 10.0779 -3.51431 16.1462
rtibia 24.2621
rfoot 31.6885 -23.7343
rtoes 16.6765
lfemur -23.4879 -19.3208 -11.609
ltibia 20.599
lfoot 32.3392 -48.0292
ltoes 38.5188
387
root -7.01343 18.1561 -3.57681 -169.063 11.9813 -174.046
lowerback -6.12832 9.91832 11.6558
upperback -7.78443 14.7984 4.74793
thorax -3.52819 7.67798 -0.719725
lowerneck -16.3569 -13.8522 -0.516602
upperneck 18.6028 -20.5465 3.17551
head 8.88339 -9.64302 -1.47089
rclavicle 3.26007e-014 2.22639e-014
rhumerus 73.9068 33.2535 -65.8278
rradius 59.0331
rwrist -15.2113
rhand -42.4971 29.1938
rfingers 7.12502
rthumb -15.374 -0.214599
lclavicle 3.26007e-014 2.22639e-014
lhumerus 51.5746 -2.66414 57.0167
lradius 57.8405
lwrist 17.4112
lhand -18.5217 17.9684
lfingers 7.12502
lthumb -172.233 -492.194
rfemur 9.97192 -3.4027 16.1785
rtibia 24.3622
rfoot 31.6687 -23.4471
rtoes 15.6805
lfemur -23.4704 -19.2333 -11.5074
ltibia 20.5526
lfoot 32.3105 -47.808
ltoes 38.8145
388
root -7.00825 18.1561 -3.56584 -169.106 12.2213 -174.034
lowerback -5.98845 9.83971 11.5553
upperback -7.61989 14.6587 4.81037
thorax -3.46875 7.60411 -0.629637
lowerneck -16.5783 -13.6705 -0.531277
upperneck 18.5816 -20.2385 3.10822
head 8.90279 -9.49137 -1.46425
rclavicle 2.54444e-014 -3.65764e-014
rhumerus 73.5092 33.5034 -65.9668
rradius 58.7632
rwrist -15.8009
rhand -42.1782 29.12
rfingers 7.12502
rthumb -15.0668 -0.311735
lclavicle 2.54444e-014 -3.65764e-014
lhumerus 51.1014 -2.8713 57.3007
lradius 57.5943
lwrist 17.3056
lhand -18.2617 18.0487
lfingers 7.12502
lthumb -171.982 -492.123
rfemur 9.92887 -3.27257 16.1546
rtibia 24.4828
rfoot 31.4228 -23.4123
rtoes 15.2369
lfemur -23.3427 -19.115 -11.5138
ltibia 20.447
lfoot 32.3445 -47.5851
ltoes 38.9947
389
root -7.00309 18.1556 -3.5546 -169.171 12.4012 -174.139
lowerback -5.8804 9.74797 11.2704
upperback -7.52118 14.5227 4.8663
thorax -3.50006 7.53933 -0.461046
lowerneck -16.5764 -13.5487 -0.567612
upperneck 18.5686 -20.0451 3.09036
head 8.89643 -9.40276 -1.43865
rclavicle -1.2921e-013 1.59028e-014
rhumerus 72.9288 33.7832 -66.1365
rradius 58.481
rwrist -16.242
rhand -41.9798 28.6982
rfingers 7.12502
rthumb -14.8757 -0.74774
lclavicle -1.2921e-013 1.59028e-014
lhumerus 50.5899 -3.19726 57.6082
lradius 57.2364
lwrist 17.3024
lhand -18.1529 17.9192
lfingers 7.12502
lthumb -171.877 -492.257
rfemur 9.90002 -3.30369 15.9728
rtibia 24.6025
rfoot 31.0061 -23.5891
rtoes 15.1326
lfemur -23.2052 -19.0028 -11.6472
ltibia 20.2925
lfoot 32.3994 -47.4897
ltoes 39.1021
390
root -6.99824 18.1556 -3.54295 -169.223 12.5917 -174.276
lowerback -5.64613 9.79983 10.9963
upperback -7.61151 14.6174 4.71926
thorax -3.73221 7.57093 -0.528328
lowerneck -16.2033 -13.5665 -0.448465
upperneck 18.3563 -20.1002 3.1498
head 8.75454 -9.44065 -1.40255
rclavicle 8.34896e-014 3.33958e-014
rhumerus 71.88 33.7044 -66.5932
rradius 58.2344
rwrist -16.6587
rhand -41.8506 28.0007
rfingers 7.12502
rthumb -14.7513 -1.45445
lclavicle 8.34896e-014 3.33958e-014
lhumerus 50.3046 -4.03014 57.815
lradius 56.8338
lwrist 17.4145
lhand -18.1298 17.771
lfingers 7.12502
lthumb -171.855 -492.406
rfemur 9.84033 -3.25566 15.7761
rtibia 24.7196
rfoot 30.5892 -23.9588
rtoes 15.4613
lfemur -23.0817 -18.9482 -11.7795
ltibia 20.1231
lfoot 32.2273 -47.4792
ltoes 39.0065
391
root -6.99457 18.1571 -3.53334 -169.204 12.8053 -174.334
lowerback -5.48793 9.88272 10.9036
upperback -7.66091 14.713 4.5106
thorax -3.82299 7.59579 -0.719285
lowerneck -16.0597 -13.542 -0.173228
upperneck 18.1787 -20.1141 3.15831
head 8.64235 -9.44466 -1.4151
rclavicle -9.10434e-014 -2.06736e-014
rhumerus 70.9935 33.5551 -67.0791
rradius 58.0008
rwrist -17.0471
rhand -41.6253 27.6382
rfingers 7.12502
rthumb -14.5341 -1.83269
lclavicle -9.10434e-014 -2.06736e-014
lhumerus 50.1258 -4.77685 58.0118
lradius 56.4676
lwrist 17.6071
lhand -18.0523 17.6391
lfingers 7.12502
lthumb -171.78 -492.541
rfemur 9.70803 -3.15891 15.6678
rtibia 24.8382
rfoot 30.3522 -24.1555
rtoes 15.9455
lfemur -23.0209 -18.9504 -11.8036
ltibia 19.9605
lfoot 31.9849 -47.3182
ltoes 39.0393
392
root -6.99185 18.1606 -3.52662 -169.125 13.0078 -174.345
lowerback -5.61975 9.89977 10.8493
upperback -7.51012 14.6448 4.43445
thorax -3.57731 7.55947 -0.722627
lowerneck -16.2323 -13.4679 0.0327618
upperneck 18.0435 -20.0256 3.15494
head 8.60355 -9.38675 -1.43597
rclavicle -1.23644e-013 -3.02153e-014
rhumerus 70.5827 33.5966 -67.2085
rradius 57.8058
rwrist -17.4314
rhand -41.4237 27.3572
rfingers 7.12502
rthumb -14.3399 -2.1276
lclavicle -1.23644e-013 -3.02153e-014
lhumerus 49.9307 -5.06896 58.3363
lradius 56.0791
lwrist 17.9978
lhand -17.7515 17.2875
lfingers 7.12502
lthumb -171.49 -492.904
rfemur 9.53781 -3.14838 15.5826
rtibia 24.9388
rfoot 30.4506 -23.8216
rtoes 15.3354
lfemur -23.0309 -18.9673 -11.7808
ltibia 19.8461
lfoot 31.4927 -47.2593
ltoes 38.8644
393
root -6.98905 18.1642 -3.52104 -169.061 13.1998 -174.317
lowerback -5.56284 9.9188 10.8274
upperback -7.4942 14.6523 4.3665
thorax -3.57417 7.55418 -0.786852
lowerneck -16.2171 -13.4385 -0.0261803
upperneck 17.9971 -19.9977 3.28822
head 8.60642 -9.36547 -1.38209
rclavicle 1.61811e-013 7.95139e-014
rhumerus 69.8768 33.6455 -67.3996
rradius 57.6676
rwrist -17.7979
rhand -41.3981 26.8491
rfingers 7.12502
rthumb -14.3153 -2.6374
lclavicle 1.61811e-013 7.95139e-014
lhumerus 49.6061 -5.50556 58.7037
lradius 55.7183
lwrist 18.4418
lhand -17.2275 17.0145
lfingers 7.12502
lthumb -170.984 -493.198
rfemur 9.41024 -3.09856 15.5501
rtibia 25.0113
rfoot 30.4965 -23.6036
rtoes 14.8318
lfemur -23.0209 -19.0008 -11.7049
ltibia 19.7676
lfoot 30.7119 -47.3736
ltoes 38.2771
394
root -6.98565 18.1641 -3.51405 -169.041 13.3927 -174.288
lowerback -5.52134 9.9058 10.7308
upperback -7.4245 14.613 4.37059
thorax -3.54288 7.53321 -0.738777
lowerneck -16.3059 -13.348 -0.0940896
upperneck 18.0359 -19.8778 3.37382
head 8.65024 -9.29804 -1.34195
rclavicle 1.28812e-013 7.31528e-014
rhumerus 69.2158 33.7569 -67.5604
rradius 57.5217
rwrist -18.198
rhand -41.4078 26.4475
rfingers 7.12502
rthumb -14.3246 -3.03831
lclavicle 1.28812e-013 7.31528e-014
lhumerus 49.2348 -5.86604 58.9923
lradius 55.397
lwrist 18.7696
lhand -16.8422 17.006
lfingers 7.12502
lthumb -170.612 -493.223
rfemur 9.33483 -3.07433 15.5013
rtibia 25.0733
rfoot 30.2864 -23.641
rtoes 15.105
lfemur -22.9676 -19.0405 -11.6225
ltibia 19.6882
lfoot 30.157 -47.3104
ltoes 37.8887
395
root -6.98267 18.1627 -3.50534 -169.043 13.57 -174.309
lowerback -5.36997 9.91008 10.6399
upperback -7.41334 14.6134 4.29888
thorax -3.60985 7.52164 -0.795256
lowerneck -16.3399 -13.3029 -0.0920473
upperneck 18.0673 -19.8388 3.44086
head 8.67412 -9.27112 -1.32179
rclavicle -2.78299e-014 3.65764e-014
rhumerus 68.352 33.8108 -68.1034
rradius 57.2316
rwrist -18.3705
rhand -41.3634 26.5413
rfingers 7.12502
rthumb -14.2818 -2.94756
lclavicle -2.78299e-014 3.65764e-014
lhumerus 48.8491 -6.34915 59.1809
lradius 55.1063
lwrist 19.1562
lhand -16.5496 16.9842
lfingers 7.12502
lthumb -170.33 -493.258
rfemur 9.28075 -3.09319 15.3955
rtibia 25.1355
rfoot 30.1519 -23.4408
rtoes 14.9972
lfemur -22.9623 -19.0225 -11.6314
ltibia 19.6165
lfoot 30.8678 -46.6576
ltoes 38.8116
396
root -6.9785 18.1638 -3.49776 -169.044 13.7286 -174.365
lowerback -5.39486 9.89753 10.4585
upperback -7.25752 14.5399 4.30046
thorax -3.46687 7.48821 -0.685744
lowerneck -16.5367 -13.2373 -0.065936
upperneck 18.0109 -19.7198 3.41757
head 8.68153 -9.20523 -1.32798
rclavicle 6.71892e-014 9.85972e-014
rhumerus 67.6895 33.9254 -68.5725
rradius 56.966
rwrist -18.4325
rhand -41.1666 26.6121
rfingers 7.12502
rthumb -14.0922 -2.8901
lclavicle 6.71892e-014 9.85972e-014
lhumerus 48.5955 -6.56883 59.618
lradius 54.7692
lwrist 19.3999
lhand -15.9679 16.6544
lfingers 7.12502
lthumb -169.769 -493.614
rfemur 9.21609 -2.98001 15.3147
rtibia 25.2166
rfoot 29.9205 -23.4868
rtoes 15.1111
lfemur -22.9501 -18.9674 -11.6849
ltibia 19.5164
lfoot 31.453 -46.199
ltoes 39.4563
